<svg xmlns="http://www.w3.org/2000/svg" x="0px" y="0px" width="48" height="48" viewBox="0 0 48 48">
    <path fill="#b522b4" d="M45 18L41 18 26 36 30 36z"/>
    <path fill="#b522b4"
          d="M42.527 32c0 0-.949.505-1.207.631-.187.092-.38.137-.591.137-.248 0-.35-.074-.405-.13-.066-.066-.246-.29-.489-.949l-4.041-11.166c-.138-.389-.275-.731-.413-1.03-.154-.334-.344-.63-.563-.88-.249-.284-.57-.504-.954-.653-.362-.139-.799-.21-1.298-.21-.852 0-1.667.23-2.42.686-.669.403-1.245.79-1.709 1.15L28 19.926 29.473 22c0 0 .949-.505 1.207-.631.187-.092.38-.137.591-.137.299 0 .4.089.432.118.06.052.222.235.421.77l3.96 11.235c.285.861.611 1.518.998 2.008.464.589 1.242.888 2.312.888.849 0 1.669-.229 2.435-.683.688-.406 1.271-.795 1.734-1.154L44 34.074 42.527 32zM29.96 5.397c-1.113-.25-2.333-.376-3.624-.376-2.985 0-5.186.64-6.926 2.014-1.799 1.421-2.922 3.132-3.638 5.552-.189.646-.308.943-.412 1.204l-.095.243c-.129.339-.242.496-.297.561-.078.091-.185.164-.328.224-.065.028-.344.125-1.143.206l-.969.069L12 18h2.454l-3.726 15.629c-.299 1.281-.615 2.319-.94 3.086-.305.721-.62 1.262-.935 1.608-.295.325-.612.558-.939.695C7.572 39.16 7.098 39.232 6.5 39.232c-.687 0-1.006-.083-1.14-.115-.592-.144-1.236-.492-1.236-.492l-1 3.5c0 0 .136.129.875.375.751.25 1.574.375 2.251.375 1.773 0 3.282-.31 4.556-.921 1.303-.626 2.418-1.659 3.315-3.069.862-1.356 1.544-3.19 2.026-5.452L19.79 18h4.585L25 15h-4.502l.413-1.751c.312-1.358.811-2.618 1.355-3.401.067-.095.135-.187.174-.232l.087-.082c.525-.565 1.232-.877 1.99-.877 1.088 0 2.07.646 2.503 1.648 0 0 .124.254.292.695h2.652L31 5.625 29.96 5.397z"/>
</svg>